<?xml version="1.0" encoding="utf-8"?>
<!-- Generator: Adobe Illustrator 18.1.0, SVG Export Plug-In . SVG Version: 6.00 Build 0)  -->
<!DOCTYPE svg PUBLIC "-//W3C//DTD SVG 1.1//EN" "http://www.w3.org/Graphics/SVG/1.1/DTD/svg11.dtd">
<svg version="1.1" id="Layer_1" xmlns="http://www.w3.org/2000/svg" xmlns:xlink="http://www.w3.org/1999/xlink" x="0px" y="0px"
	 viewBox="0 0 841.9 595.3" enable-background="new 0 0 841.9 595.3" xml:space="preserve">
<g>
	<circle fill="#B11F24" cx="615.3" cy="306.9" r="123.3"/>
	<g>
		<path d="M615.3,354.5c-37.7,0-68.2,24.7-68.2,55.1c0,0,0,0,0,0c19.5,13,43,20.6,68.2,20.6c25.2,0,48.7-7.6,68.3-20.6
			C683.5,379.2,653,354.5,615.3,354.5z"/>
	</g>
	<path fill="#FFFFFF" d="M679.8,287.4l26.3,11.1l-36.8-51.2l-0.1-0.5l-10.6-14l-25.4-9.8c0,0-16.5-13.4-17.5-13.6v0l0,0c0,0,0,0,0,0
		v0c-1,0.2-17.5,13.6-17.5,13.6l-25.4,9.8l-10.6,14l-0.2,0.5l-36.8,51.2l26.3-11.1l-14.1,55.5l25-24.4l-13.1,44l50.8-45.6l-4.2-2.6
		l19.8-0.6l19.8,0.6l-4.2,2.6l50.8,45.6l-13.1-44l25,24.4L679.8,287.4z"/>
	<ellipse fill="#FBBD97" cx="616.2" cy="315" rx="55.9" ry="63.8"/>
	
		<ellipse transform="matrix(-0.9957 9.247605e-02 -9.247605e-02 -0.9957 1217.5018 585.1292)" fill="#FFFFFF" cx="595.2" cy="320.8" rx="9.6" ry="5.9"/>
	<path fill="#E6E7E8" d="M620.7,315c0,0,4.7-4.2,11.8-5.6c4.5-0.9,8.3-0.7,14,0.7c4.9,1.2,7.9,8.8,6.8,13.3c-1,3.8-4.2,7.1-10.7,7.1
		c-3.7,0-6.5,0-6.5,0s0.6,1.6,2.7,3.5c4.3,4,7.2,5.6,8.9,7.3c1.4,1.4,0.8,4.6,0.8,4.6s-4.4-2-9.9-5.4c-7.6-4.6-14-8.6-16.8-15.7
		C620.3,321.1,620.7,315,620.7,315z"/>
	
		<ellipse transform="matrix(0.9957 9.252763e-02 -9.252763e-02 0.9957 32.3873 -57.566)" fill="#FFFFFF" cx="637" cy="320.5" rx="9.6" ry="5.9"/>
	<path fill="#FBBD97" d="M675.6,332.6c0,2-1.6,3.6-3.6,3.6l0,0c-2,0-3.6-1.6-3.6-3.6v-13.5c0-2,1.6-3.6,3.6-3.6l0,0
		c2,0,3.6,1.6,3.6,3.6V332.6z"/>
	<path fill="#FBBD97" d="M563.9,332.6c0,2-1.6,3.6-3.6,3.6l0,0c-2,0-3.6-1.6-3.6-3.6v-13.5c0-2,1.6-3.6,3.6-3.6l0,0
		c2,0,3.6,1.6,3.6,3.6V332.6z"/>
	<path fill="#FFFFFF" d="M553.8,252.1"/>
	<ellipse fill="#FFFFFF" cx="639.7" cy="314.3" rx="1" ry="0.6"/>
	<path fill="#FFFFFF" d="M616.2,250.7c-31.4,0-56.8,29-56.8,64.8h7.8c0-30.9,21.9-55.9,49-55.9s49,25,49,55.9h7.8
		C673,279.7,647.6,250.7,616.2,250.7z"/>
	<path fill="#FFFFFF" d="M586.2,364.6v-6.4c0-5.6,4.8-10.1,10.6-10.1h37.5c5.9,0,10.6,4.5,10.6,10.1v6.4H586.2z"/>
	<path fill="#FBBD97" d="M626,347.9c0,3.6-4.6,6.5-10.4,6.5l0,0c-5.7,0-10.4-2.9-10.4-6.5v-10.8c0-3.6,4.6-6.5,10.4-6.5l0,0
		c5.7,0,10.4,2.9,10.4,6.5V347.9z"/>
	<ellipse fill="#FFFFFF" cx="638.8" cy="323.5" rx="1" ry="0.6"/>
	<g>
		<circle cx="595.2" cy="322" r="4.6"/>
		<path d="M584.1,322c0.3-1.7,0.9-3.5,2.9-5.3c1.5-1.4,3.3-2.4,5.6-2.9c2.4-0.5,5.7-0.4,8,0.8c2.4,1.2,2.5,2.4,5.2,5.1
			c1.5,1.5,4,2.3,4.3,3.6c0.2,0.9-0.1,1.7-0.8,2.2c-0.9,0.6-2.7,0.3-4.2-0.6c-2-1.1-3.6-2.8-5.3-3.9c-1.8-1.2-3.8-1.9-5.4-1.7
			c-1.1,0.1-4,1.2-5.5,2.5c-2.2,1.9-5,6.2-5,6.2S583.8,323.4,584.1,322z"/>
	</g>
	<ellipse fill="#FFFFFF" cx="597.2" cy="323.5" rx="1" ry="0.6"/>
	<path d="M599.2,309.9c0.1,1-0.7,1.9-1.8,2l-8.4,0.5c-1,0.1-1.9-0.7-2-1.8l0,0c-0.1-1,0.7-1.9,1.8-2l8.4-0.5
		C598.2,308.1,599.1,308.9,599.2,309.9L599.2,309.9z"/>
	<path fill="#E6E7E8" d="M640.7,277.8c0,0-7.1-4-14.1-4c-4.3,0-8.6,2-11,2c-2.4,0-6.7-2-11-2c-7,0-14.1,4-14.1,4
		c-0.5,0.3-0.9,0.4-0.9,0.9c0,0.5,0.4,0.9,0.9,0.9c0,0,7.1-4,14.1-4c3.4,0,6.7,1.2,9.2,1.7c0.4,0.2,1,0.3,1.8,0.3c0,0,0,0,0,0
		s0,0,0,0c0.1,0,0.2,0,0.4,0c2.5-0.2,6.5-2,10.6-2c7,0,14.1,4,14.1,4c0.5,0,0.9-0.4,0.9-0.9C641.6,278.2,641.2,278.1,640.7,277.8z"
		/>
	<path fill="#E6E7E8" d="M640.7,283.6c0,0-7.1-4-14.1-4c-4.3,0-8.6,2-11,2c-2.4,0-6.7-2-11-2c-7,0-14.1,4-14.1,4
		c-0.5,0.3-0.9,0.4-0.9,0.9c0,0.5,0.4,0.9,0.9,0.9c0,0,7.1-4,14.1-4c3.4,0,6.7,1.2,9.2,1.7c0.4,0.2,1,0.3,1.8,0.3c0,0,0,0,0,0
		c0,0,0,0,0,0c0.1,0,0.2,0,0.4,0c2.5-0.2,6.5-2,10.6-2c7,0,14.1,4,14.1,4c0.5,0,0.9-0.4,0.9-0.9
		C641.6,283.9,641.2,283.8,640.7,283.6z"/>
	<path fill="#E6E7E8" d="M640.7,295.1c0,0-7.1-4-14.1-4c-4.3,0-8.6,2-11,2c-2.4,0-6.7-2-11-2c-7,0-14.1,4-14.1,4
		c-0.5,0.3-0.9,0.4-0.9,0.9c0,0.5,0.4,0.9,0.9,0.9c0,0,7.1-4,14.1-4c3.4,0,6.7,1.2,9.2,1.7c0.4,0.2,1,0.3,1.8,0.3c0,0,0,0,0,0
		c0,0,0,0,0,0c0.1,0,0.2,0,0.4,0c2.5-0.2,6.5-2,10.6-2c7,0,14.1,4,14.1,4c0.5,0,0.9-0.4,0.9-0.9
		C641.6,295.4,641.2,295.3,640.7,295.1z"/>
	<g>
		<circle cx="637" cy="321.7" r="4.6"/>
		<path d="M648.1,321.7c-0.3-1.7-0.9-3.5-2.9-5.3c-1.5-1.4-3.3-2.4-5.6-2.9c-2.4-0.5-5.7-0.4-8,0.8c-2.4,1.2-2.5,2.4-5.2,5.1
			c-1.5,1.5-4,2.3-4.3,3.6c-0.2,0.9,0.1,1.7,0.8,2.2c0.9,0.6,2.7,0.3,4.2-0.6c2-1.1,3.6-2.8,5.3-3.9c1.8-1.2,3.8-1.9,5.4-1.7
			c1.1,0.1,4,1.2,5.5,2.5c2.2,1.9,5,6.2,5,6.2S648.4,323.2,648.1,321.7z"/>
	</g>
	<ellipse fill="#FFFFFF" cx="639.1" cy="323.2" rx="1" ry="0.6"/>
	<path fill="none" d="M632.1,309.2c-0.1,1.2,0.8,2.2,2,2.3l9.7,0.6c1.2,0.1,2.2-0.8,2.3-2l0,0c0.1-1.2-0.8-2.2-2-2.3l-9.7-0.6
		C633.2,307.1,632.2,308,632.1,309.2L632.1,309.2z"/>
	<path fill="#FFFFFF" d="M603.6,304.5c0.1,1.8-1.3,3.3-3.1,3.5l-14.6,0.9c-1.8,0.1-3.3-1.3-3.5-3.1l0,0c-0.1-1.8,1.3-3.3,3.1-3.5
		l14.6-0.9C602,301.3,603.5,302.7,603.6,304.5L603.6,304.5z"/>
	<path fill="#FFFFFF" d="M629.2,305.3c-0.1,1.8,1.3,3.3,3.1,3.5l14.6,0.9c1.8,0.1,3.3-1.3,3.5-3.1l0,0c0.1-1.8-1.3-3.3-3.1-3.5
		l-14.6-0.9C630.8,302.1,629.3,303.5,629.2,305.3L629.2,305.3z"/>
	<g>
		<path fill="#E6E7E8" d="M615.6,183.6c-68.1,0-123.3,55.2-123.3,123.3c0,68.1,55.2,123.3,123.3,123.3h0L615.6,183.6L615.6,183.6z"
			/>
	</g>
</g>
</svg>
