<?xml version="1.0" encoding="utf-8"?>
<!-- Generator: Adobe Illustrator 18.1.0, SVG Export Plug-In . SVG Version: 6.00 Build 0)  -->
<!DOCTYPE svg PUBLIC "-//W3C//DTD SVG 1.1//EN" "http://www.w3.org/Graphics/SVG/1.1/DTD/svg11.dtd">
<svg version="1.1" id="Layer_1" xmlns="http://www.w3.org/2000/svg" xmlns:xlink="http://www.w3.org/1999/xlink" x="0px" y="0px"
	 viewBox="0 0 841.9 595.3" enable-background="new 0 0 841.9 595.3" xml:space="preserve">
<g>
	<circle fill="#EAEAEA" cx="223.1" cy="306.9" r="123.3"/>
	<g>
		<path d="M223.1,354.5c-37.7,0-68.2,24.7-68.2,55.1c0,0,0,0,0,0c19.5,13,43,20.6,68.2,20.6c25.2,0,48.7-7.6,68.3-20.6
			C291.3,379.2,260.7,354.5,223.1,354.5z"/>
	</g>
	<ellipse fill="#4A201E" cx="223.1" cy="286" rx="84.6" ry="76.3"/>
	<ellipse fill="#FBBD97" cx="223.9" cy="315" rx="55.9" ry="63.8"/>
	
		<ellipse transform="matrix(-0.9975 -7.074964e-02 7.074964e-02 -0.9975 373.0306 657.7242)" fill="#FFFFFF" cx="198.2" cy="322.3" rx="9.6" ry="4.6"/>
	
		<ellipse transform="matrix(0.9975 -7.075287e-02 7.075287e-02 0.9975 -22.1563 18.2735)" fill="#FFFFFF" cx="246.9" cy="321.9" rx="9.6" ry="4.6"/>
	<path fill="#FBBD97" d="M283.3,332.6c0,2-1.6,3.6-3.6,3.6l0,0c-2,0-3.6-1.6-3.6-3.6v-13.5c0-2,1.6-3.6,3.6-3.6l0,0
		c2,0,3.6,1.6,3.6,3.6V332.6z"/>
	<path fill="#FBBD97" d="M171.6,332.6c0,2-1.6,3.6-3.6,3.6l0,0c-2,0-3.6-1.6-3.6-3.6v-13.5c0-2,1.6-3.6,3.6-3.6l0,0
		c2,0,3.6,1.6,3.6,3.6V332.6z"/>
	<path fill="#FFFFFF" d="M161.6,252.1"/>
	<path fill="#4A201E" d="M223.9,250.7c-31.4,0-56.8,29-56.8,64.8h7.8c0-19.7,8.9-35.8,22.4-44.9c7.7-5.2,16.8,1,26.6,1
		c9.3,0,18-6.4,25.4-1.7c14.2,8.9,23.6,25.4,23.6,45.6h7.8C280.8,279.7,255.3,250.7,223.9,250.7z"/>
	<ellipse fill="#FFFFFF" cx="246.5" cy="323.5" rx="1" ry="0.6"/>
	<ellipse fill="#FFFFFF" cx="246.9" cy="323.2" rx="1" ry="0.6"/>
	<path fill="#F04E23" d="M223.1,353.5c0,0,6.7-4.9,9-1.1c2.6,4.2-8.8,9.9-8.8,9.9s-11.7-6.4-8.8-9.9
		C218.2,348.2,223.1,353.5,223.1,353.5z"/>
	<path d="M259.7,325.9c0,0-1.7-5.8-4.6-7.3c-2.9-1.5-5.6-2-8.5-2.1c-2.9-0.1-5.9-0.1-8.8,1.4c-2,1-3.1,2.6-3.4,4.8
		c-0.2,1.3-0.1,3.6-0.1,3.6s4.1-2.8,6-3.6c2.3-1,7-1.7,9.8-1.3C253.3,321.8,259.7,325.9,259.7,325.9z"/>
	<path fill="#E6E7E8" d="M242,315.2c1.2-1.4,2.4-3,5-3.8c1.3-0.4,4.2-0.5,4.3-0.5c0.2-0.1-4.2-1.1-5.7-1.2c-1.4-0.1-11.8-1.3-14.2,1
		c-2.1,2.1-2.6,7.9-2.6,7.9s4.1-0.5,5.3,0c0.4,0.2,1.2,1.2,1.2,1.2l6.5-1.8C242,318,241.4,316,242,315.2z"/>
	<circle cx="246.9" cy="321.8" r="4.4"/>
	<circle cx="198.2" cy="321.9" r="4.4"/>
	<path fill="none" d="M215.6,310.3c-2.6-1.5-11.6-1.2-15.9-0.2c-4.5,1-9,3.3-11.1,5.6c-3.7,4.2-7.1,12.8-7.1,12.8s3.3,0.3,5.3-0.6
		c1-0.5,3.9-8.2,3.9-8.2l18,1.4c0,0-0.1,3-2.1,6.5c-1,1.7-3.2,2.3-3.2,2.3s6.6,0.3,9.1-0.3c2.6-0.6,4.7-0.9,5-2.7
		C218.2,322.9,217.5,311.4,215.6,310.3z"/>
	<ellipse fill="#FFFFFF" cx="249.4" cy="322.9" rx="1" ry="0.6"/>
	<ellipse fill="#FFFFFF" cx="200.5" cy="322.9" rx="1" ry="0.6"/>
	<path fill="#4A201E" d="M216,309.9c0,0.4-0.3,0.8-0.8,0.8c0,0-10.5-1.2-14.1-0.8c-7.3,0.8-13.2,6.6-13.2,6.6
		c-0.5,0.1-0.7-0.2-0.6-0.6l0,0c0.1-0.4,0.3-0.5,0.6-1c0,0,5.7-5.8,13.1-6.6c3.7-0.4,14.2,0.8,14.2,0.8
		C215.6,309.2,216,309.5,216,309.9L216,309.9z"/>
	<path fill="#4A201E" d="M232.2,309.9c0,0.4,0.3,0.8,0.8,0.8c0,0,10.5-1.2,14.1-0.8c7.3,0.8,13.2,6.6,13.2,6.6
		c0.5,0.1,0.7-0.2,0.6-0.6l0,0c-0.1-0.4-0.3-0.5-0.6-1c0,0-5.7-5.8-13.1-6.6c-3.7-0.4-14.2,0.8-14.2,0.8
		C232.5,309.2,232.2,309.5,232.2,309.9L232.2,309.9z"/>
	<path d="M186.5,325.9c0,0,1.7-5.8,4.6-7.3c2.9-1.5,5.6-2,8.5-2.1c2.9-0.1,5.9-0.1,8.8,1.4c2,1,3.1,2.6,3.4,4.8
		c0.2,1.3,0.1,3.6,0.1,3.6s-4.1-2.8-6-3.6c-2.3-1-7-1.7-9.8-1.3C192.8,321.8,186.5,325.9,186.5,325.9z"/>
	<g>
		<path fill="#E6E7E8" d="M223.3,183.6c-68.1,0-123.3,55.2-123.3,123.3c0,68.1,55.2,123.3,123.3,123.3h0L223.3,183.6L223.3,183.6z"
			/>
	</g>
</g>
</svg>
