<svg xmlns="http://www.w3.org/2000/svg" viewBox="0 0 841.9 595.3" enable-background="new 0 0 841.9 595.3"><circle fill="#B11F24" cx="615.3" cy="306.9" r="123.3"/><path d="M615.3 354.5c-37.7 0-68.2 24.7-68.2 55.1 19.5 13 43 20.6 68.2 20.6 25.2 0 48.7-7.6 68.3-20.6-.1-30.4-30.6-55.1-68.3-55.1z"/><path fill="#fff" d="M679.8 287.4l26.3 11.1-36.8-51.2-.1-.5-10.6-14-25.4-9.8s-16.5-13.4-17.5-13.6c-1 .2-17.5 13.6-17.5 13.6l-25.4 9.8-10.6 14-.2.5-36.8 51.2 26.3-11.1-14.1 55.5 25-24.4-13.1 44 50.8-45.6-4.2-2.6 19.8-.6 19.8.6-4.2 2.6 50.8 45.6-13.1-44 25 24.4-14.2-55.5z"/><ellipse fill="#FBBD97" cx="616.2" cy="315" rx="55.9" ry="63.8"/><ellipse transform="matrix(-.996 .092 -.092 -.996 1217.502 585.129)" fill="#fff" cx="595.2" cy="320.8" rx="9.6" ry="5.9"/><path fill="#E6E7E8" d="M620.7 315s4.7-4.2 11.8-5.6c4.5-.9 8.3-.7 14 .7 4.9 1.2 7.9 8.8 6.8 13.3-1 3.8-4.2 7.1-10.7 7.1h-6.5s.6 1.6 2.7 3.5c4.3 4 7.2 5.6 8.9 7.3 1.4 1.4.8 4.6.8 4.6s-4.4-2-9.9-5.4c-7.6-4.6-14-8.6-16.8-15.7-1.5-3.7-1.1-9.8-1.1-9.8z"/><ellipse transform="matrix(.996 .093 -.093 .996 32.387 -57.566)" fill="#fff" cx="637" cy="320.5" rx="9.6" ry="5.9"/><path fill="#FBBD97" d="M675.6 332.6c0 2-1.6 3.6-3.6 3.6s-3.6-1.6-3.6-3.6v-13.5c0-2 1.6-3.6 3.6-3.6s3.6 1.6 3.6 3.6v13.5zM563.9 332.6c0 2-1.6 3.6-3.6 3.6s-3.6-1.6-3.6-3.6v-13.5c0-2 1.6-3.6 3.6-3.6s3.6 1.6 3.6 3.6v13.5z"/><path fill="#fff" d="M553.8 252.1"/><ellipse fill="#fff" cx="639.7" cy="314.3" rx="1" ry=".6"/><path fill="#fff" d="M616.2 250.7c-31.4 0-56.8 29-56.8 64.8h7.8c0-30.9 21.9-55.9 49-55.9s49 25 49 55.9h7.8c0-35.8-25.4-64.8-56.8-64.8zM586.2 364.6v-6.4c0-5.6 4.8-10.1 10.6-10.1h37.5c5.9 0 10.6 4.5 10.6 10.1v6.4h-58.7z"/><path fill="#FBBD97" d="M626 347.9c0 3.6-4.6 6.5-10.4 6.5-5.7 0-10.4-2.9-10.4-6.5v-10.8c0-3.6 4.6-6.5 10.4-6.5 5.7 0 10.4 2.9 10.4 6.5v10.8z"/><ellipse fill="#fff" cx="638.8" cy="323.5" rx="1" ry=".6"/><circle cx="595.2" cy="322" r="4.6"/><path d="M584.1 322c.3-1.7.9-3.5 2.9-5.3 1.5-1.4 3.3-2.4 5.6-2.9 2.4-.5 5.7-.4 8 .8 2.4 1.2 2.5 2.4 5.2 5.1 1.5 1.5 4 2.3 4.3 3.6.2.9-.1 1.7-.8 2.2-.9.6-2.7.3-4.2-.6-2-1.1-3.6-2.8-5.3-3.9-1.8-1.2-3.8-1.9-5.4-1.7-1.1.1-4 1.2-5.5 2.5-2.2 1.9-5 6.2-5 6.2s-.1-4.6.2-6z"/><ellipse fill="#fff" cx="597.2" cy="323.5" rx="1" ry=".6"/><path d="M599.2 309.9c.1 1-.7 1.9-1.8 2l-8.4.5c-1 .1-1.9-.7-2-1.8-.1-1 .7-1.9 1.8-2l8.4-.5c1 0 1.9.8 2 1.8z"/><path fill="#E6E7E8" d="M640.7 277.8s-7.1-4-14.1-4c-4.3 0-8.6 2-11 2-2.4 0-6.7-2-11-2-7 0-14.1 4-14.1 4-.5.3-.9.4-.9.9s.4.9.9.9c0 0 7.1-4 14.1-4 3.4 0 6.7 1.2 9.2 1.7.4.2 1 .3 1.8.3h.4c2.5-.2 6.5-2 10.6-2 7 0 14.1 4 14.1 4 .5 0 .9-.4.9-.9s-.4-.6-.9-.9zM640.7 283.6s-7.1-4-14.1-4c-4.3 0-8.6 2-11 2-2.4 0-6.7-2-11-2-7 0-14.1 4-14.1 4-.5.3-.9.4-.9.9s.4.9.9.9c0 0 7.1-4 14.1-4 3.4 0 6.7 1.2 9.2 1.7.4.2 1 .3 1.8.3h.4c2.5-.2 6.5-2 10.6-2 7 0 14.1 4 14.1 4 .5 0 .9-.4.9-.9 0-.6-.4-.7-.9-.9zM640.7 295.1s-7.1-4-14.1-4c-4.3 0-8.6 2-11 2-2.4 0-6.7-2-11-2-7 0-14.1 4-14.1 4-.5.3-.9.4-.9.9s.4.9.9.9c0 0 7.1-4 14.1-4 3.4 0 6.7 1.2 9.2 1.7.4.2 1 .3 1.8.3h.4c2.5-.2 6.5-2 10.6-2 7 0 14.1 4 14.1 4 .5 0 .9-.4.9-.9 0-.6-.4-.7-.9-.9z"/><circle cx="637" cy="321.7" r="4.6"/><path d="M648.1 321.7c-.3-1.7-.9-3.5-2.9-5.3-1.5-1.4-3.3-2.4-5.6-2.9-2.4-.5-5.7-.4-8 .8-2.4 1.2-2.5 2.4-5.2 5.1-1.5 1.5-4 2.3-4.3 3.6-.2.9.1 1.7.8 2.2.9.6 2.7.3 4.2-.6 2-1.1 3.6-2.8 5.3-3.9 1.8-1.2 3.8-1.9 5.4-1.7 1.1.1 4 1.2 5.5 2.5 2.2 1.9 5 6.2 5 6.2s.1-4.5-.2-6z"/><ellipse fill="#fff" cx="639.1" cy="323.2" rx="1" ry=".6"/><path d="M632.1 309.2c-.1 1.2.8 2.2 2 2.3l9.7.6c1.2.1 2.2-.8 2.3-2 .1-1.2-.8-2.2-2-2.3l-9.7-.6c-1.2-.1-2.2.8-2.3 2z" fill="none"/><path fill="#fff" d="M603.6 304.5c.1 1.8-1.3 3.3-3.1 3.5l-14.6.9c-1.8.1-3.3-1.3-3.5-3.1-.1-1.8 1.3-3.3 3.1-3.5l14.6-.9c1.9-.1 3.4 1.3 3.5 3.1zM629.2 305.3c-.1 1.8 1.3 3.3 3.1 3.5l14.6.9c1.8.1 3.3-1.3 3.5-3.1.1-1.8-1.3-3.3-3.1-3.5l-14.6-.9c-1.9-.1-3.4 1.3-3.5 3.1z"/><path fill="#E6E7E8" d="M615.6 183.6c-68.1 0-123.3 55.2-123.3 123.3s55.2 123.3 123.3 123.3V183.6z"/></svg>