<svg xmlns="http://www.w3.org/2000/svg" viewBox="0 0 841.9 595.3" enable-background="new 0 0 841.9 595.3"><circle fill="#EAEAEA" cx="223.1" cy="306.9" r="123.3"/><path d="M223.1 354.5c-37.7 0-68.2 24.7-68.2 55.1 19.5 13 43 20.6 68.2 20.6 25.2 0 48.7-7.6 68.3-20.6-.1-30.4-30.7-55.1-68.3-55.1z"/><ellipse fill="#4A201E" cx="223.1" cy="286" rx="84.6" ry="76.3"/><ellipse fill="#FBBD97" cx="223.9" cy="315" rx="55.9" ry="63.8"/><ellipse transform="matrix(-.998 -.071 .071 -.998 373.031 657.724)" fill="#fff" cx="198.2" cy="322.3" rx="9.6" ry="4.6"/><ellipse transform="matrix(.998 -.071 .071 .998 -22.156 18.273)" fill="#fff" cx="246.9" cy="321.9" rx="9.6" ry="4.6"/><path fill="#FBBD97" d="M283.3 332.6c0 2-1.6 3.6-3.6 3.6s-3.6-1.6-3.6-3.6v-13.5c0-2 1.6-3.6 3.6-3.6s3.6 1.6 3.6 3.6v13.5zM171.6 332.6c0 2-1.6 3.6-3.6 3.6s-3.6-1.6-3.6-3.6v-13.5c0-2 1.6-3.6 3.6-3.6s3.6 1.6 3.6 3.6v13.5z"/><path fill="#fff" d="M161.6 252.1"/><path fill="#4A201E" d="M223.9 250.7c-31.4 0-56.8 29-56.8 64.8h7.8c0-19.7 8.9-35.8 22.4-44.9 7.7-5.2 16.8 1 26.6 1 9.3 0 18-6.4 25.4-1.7 14.2 8.9 23.6 25.4 23.6 45.6h7.8c.1-35.8-25.4-64.8-56.8-64.8z"/><ellipse fill="#fff" cx="246.5" cy="323.5" rx="1" ry=".6"/><ellipse fill="#fff" cx="246.9" cy="323.2" rx="1" ry=".6"/><path fill="#F04E23" d="M223.1 353.5s6.7-4.9 9-1.1c2.6 4.2-8.8 9.9-8.8 9.9s-11.7-6.4-8.8-9.9c3.7-4.2 8.6 1.1 8.6 1.1z"/><path d="M259.7 325.9s-1.7-5.8-4.6-7.3c-2.9-1.5-5.6-2-8.5-2.1-2.9-.1-5.9-.1-8.8 1.4-2 1-3.1 2.6-3.4 4.8-.2 1.3-.1 3.6-.1 3.6s4.1-2.8 6-3.6c2.3-1 7-1.7 9.8-1.3 3.2.4 9.6 4.5 9.6 4.5z"/><path fill="#E6E7E8" d="M242 315.2c1.2-1.4 2.4-3 5-3.8 1.3-.4 4.2-.5 4.3-.5.2-.1-4.2-1.1-5.7-1.2-1.4-.1-11.8-1.3-14.2 1-2.1 2.1-2.6 7.9-2.6 7.9s4.1-.5 5.3 0c.4.2 1.2 1.2 1.2 1.2l6.5-1.8c.2 0-.4-2 .2-2.8z"/><circle cx="246.9" cy="321.8" r="4.4"/><circle cx="198.2" cy="321.9" r="4.4"/><path d="M215.6 310.3c-2.6-1.5-11.6-1.2-15.9-.2-4.5 1-9 3.3-11.1 5.6-3.7 4.2-7.1 12.8-7.1 12.8s3.3.3 5.3-.6c1-.5 3.9-8.2 3.9-8.2l18 1.4s-.1 3-2.1 6.5c-1 1.7-3.2 2.3-3.2 2.3s6.6.3 9.1-.3c2.6-.6 4.7-.9 5-2.7.7-4 0-15.5-1.9-16.6z" fill="none"/><ellipse fill="#fff" cx="249.4" cy="322.9" rx="1" ry=".6"/><ellipse fill="#fff" cx="200.5" cy="322.9" rx="1" ry=".6"/><path fill="#4A201E" d="M216 309.9c0 .4-.3.8-.8.8 0 0-10.5-1.2-14.1-.8-7.3.8-13.2 6.6-13.2 6.6-.5.1-.7-.2-.6-.6.1-.4.3-.5.6-1 0 0 5.7-5.8 13.1-6.6 3.7-.4 14.2.8 14.2.8.4.1.8.4.8.8zM232.2 309.9c0 .4.3.8.8.8 0 0 10.5-1.2 14.1-.8 7.3.8 13.2 6.6 13.2 6.6.5.1.7-.2.6-.6-.1-.4-.3-.5-.6-1 0 0-5.7-5.8-13.1-6.6-3.7-.4-14.2.8-14.2.8-.5.1-.8.4-.8.8z"/><path d="M186.5 325.9s1.7-5.8 4.6-7.3c2.9-1.5 5.6-2 8.5-2.1 2.9-.1 5.9-.1 8.8 1.4 2 1 3.1 2.6 3.4 4.8.2 1.3.1 3.6.1 3.6s-4.1-2.8-6-3.6c-2.3-1-7-1.7-9.8-1.3-3.3.4-9.6 4.5-9.6 4.5z"/><path fill="#E6E7E8" d="M223.3 183.6c-68.1 0-123.3 55.2-123.3 123.3s55.2 123.3 123.3 123.3V183.6z"/></svg>